# AST/ASF file generated using VICON BodyLanguage
# -----------------------------------------------
:version 1.10
:name VICON
:units
  mass 1.0
  length 0.45
  angle deg
:documentation
   .ast/.asf automatically generated from VICON data using
   VICON BodyBuilder and BodyLanguage model FoxedUp or BRILLIANT.MOD
:root
   order TX TY TZ RX RY RZ
   axis XYZ
   position 0 0 0  
   orientation 0 0 0 
:bonedata
  begin
     id 1 
     name lhipjoint
     direction 0.693937 -0.600361 0.397515 
     length 2.37164 
     axis 0 0 0  XYZ
  end
  begin
     id 2 
     name lfemur
     direction 0.34202 -0.939693 0  
     length 6.18497  
     axis 0 0 20  XYZ
    dof rx ry rz
    limits (-160.0 20.0)
           (-70.0 70.0)
           (-60.0 70.0)
  end
  begin
     id 3 
     name ltibia
     direction 0.34202 -0.939693 0   
     length 6.91601   
     axis 0 0 20   XYZ
    dof rx
    limits (-10.0 170.0)
  end
  begin
     id 4 
     name lfoot
     direction 0.0978718 -0.2689 0.958182   
     length 1.81453   
     axis -90 7.62852e-016 20   XYZ
    dof rx rz
    limits (-45.0 90.0)
           (-70.0 20.0)
  end
  begin
     id 5 
     name ltoes
     direction 1.53569e-011 -4.21951e-011 1   
     length 0.912052   
     axis -90 7.62852e-016 20   XYZ
    dof rx
    limits (-90.0 20.0)
  end
  begin
     id 6 
     name rhipjoint
     direction -0.643996 -0.637876 0.422354   
     length 2.23216  
     axis 0 0 0  XYZ 
  end
  begin
     id 7 
     name rfemur
     direction -0.34202 -0.939693 0   
     length 6.15404   
     axis 0 0 -20   XYZ
    dof rx ry rz
    limits (-160.0 20.0)
           (-70.0 70.0)
           (-70.0 60.0)
  end
  begin
     id 8 
     name rtibia
     direction -0.34202 -0.939693 0   
     length 6.86744   
     axis 0 0 -20   XYZ
    dof rx
    limits (-10.0 170.0)
 end
 begin
     id 9 
     name rfoot
     direction -0.118701 -0.326127 0.937844   
     length 1.9243  
     axis -90 -7.62852e-016 -20   XYZ
    dof rx rz
    limits (-45.0 90.0)
           (-20.0 70.0)
  end
  begin
     id 10 
     name rtoes
     direction -1.5356e-011 -4.2181e-011 1   
     length 0.958865   
     axis -90 -7.62852e-016 -20   XYZ
    dof rx
    limits (-90.0 20.0)
  end
  begin
     id 11 
     name lowerback
     direction 0.0310826 0.968686 -0.246334   
     length 2.00021   
     axis 0 0 0   XYZ
    dof rx ry rz
    limits (-20.0 45.0)
           (-30.0 30.0)
           (-30.0 30.0)
  end
  begin
     id 12 
     name upperback
     direction -0.0152834 0.999474 -0.0286152   
     length 2.03728   
     axis 0 0 0   XYZ
    dof rx ry rz
    limits (-20.0 45.0)
           (-30.0 30.0)
           (-30.0 30.0)
  end
  begin
     id 13 
     name thorax
     direction -0.0323701 0.996236 0.0804149   
     length 2.16   
     axis 0 0 0   XYZ
    dof rx ry rz
    limits (-20.0 45.0)
           (-30.0 30.0)
           (-30.0 30.0)
  end
  begin
     id 14 
     name lowerneck
     direction 0.0307935 0.982251 0.185027   
     length 1.43558   
     axis 0 0 0   XYZ
    dof rx ry rz
    limits (-20.0 45.0)
           (-30.0 30.0)
           (-30.0 30.0)
  end
  begin
     id 15 
     name upperneck
     direction -0.0927153 0.994775 0.0427454   
     length 1.44603   
     axis 0 0 0   XYZ
    dof rx ry rz
    limits (-20.0 45.0)
           (-30.0 30.0)
           (-30.0 30.0)
  end
  begin
     id 16
     name head
     direction -0.0341265 0.999406 -0.00472033  
     length 1.45931  
     axis 0 0 0   XYZ
    dof rx ry rz
    limits (-20.0 45.0)
           (-30.0 30.0)
           (-30.0 30.0)
  end
  begin
     id 17 
     name lclavicle
     direction 0.820755 0.555306 -0.134151  
     length 2.66075  
     axis 0 0 0   XYZ
    dof ry rz
    limits (-20.0 10.0)
           (0.0 20.0)
  end
  begin
     id 18 
     name lhumerus
     direction 1 -4.48971e-011 5.24853e-027   
     length 5.0546   
     axis -180 -30 -90   XYZ
    dof rx ry rz
    limits (-60.0 90.0)
           (-90.0 90.0)
           (-90.0 90.0)
  end
  begin
     id 19
     name lradius
     direction 1 -4.48971e-011 2.76575e-028   
     length 3.39013   
     axis -180 -30 -90   XYZ
    dof rx
    limits (-10.0 170.0)
  end
  begin
     id 20
     name lwrist
     direction 1 -4.48939e-011 -2.27826e-027   
     length 1.69507   
     axis 2.17013e-015 90 90   XYZ
    dof ry
    limits (-180.0 0.0)
 end
  begin
     id 21 
     name lhand
     direction 1 -4.49009e-011 -4.55652e-027   
     length 0.572425   
     axis 2.90745e-015 90 90   XYZ
    dof rx rz
    limits (-90.0 90.0)
           (-45.0 45.0)
  end
  begin
     id 22 
     name lfingers
     direction 1 -4.48955e-011 -9.11303e-027   
     length 0.461504   
     axis 5.81489e-015 90 90   XYZ
    dof rx
    limits (0.0 90.0)
  end
  begin
     id 23
     name lthumb
     direction 0.707107 -6.34929e-011 0.707107   
     length 0.66263   
     axis -90 45 2.85299e-015   XYZ
    dof rx rz
    limits (-45.0 45.0)
           (-45.0 45.0)
  end
  begin
     id 24 
     name rclavicle
     direction -0.754477 0.632921 -0.173712   
     length 2.73081  
     axis 0 0 0   XYZ 
    dof ry rz
    limits (-10.0 20.0)
           (-20.0 0.0)
  end
  begin
     id 25 
     name rhumerus
     direction -1 -4.48969e-011 5.1496e-027  
     length 5.0701   
     axis -180 30 90   XYZ
    dof rx ry rz
    limits (-90.0 60.0)
           (-90.0 90.0)
           (-90.0 90.0)
  end
  begin
     id 26 
     name rradius
     direction -1 -4.48967e-011 -7.15624e-028   
     length 3.14957   
     axis -180 30 90   XYZ
    dof rx
    limits (-10.0 170.0)
  end
  begin
     id 27 
     name rwrist
     direction -1 -4.48938e-011 -2.27826e-027   
     length 1.57479   
     axis 2.17013e-015 -90 -90   XYZ
    dof ry
    limits (-180.0 0.0)
  end
  begin
     id 28
     name rhand
     direction -1 -4.49008e-011 -4.55652e-027   
     length 0.718191   
     axis 2.90745e-015 -90 -90   XYZ
    dof rx rz
    limits (-90.0 90.0)
           (-45.0 45.0)
  end
  begin
     id 29
     name rfingers
     direction -1 -4.48953e-011 -9.11303e-027   
     length 0.579024   
     axis 5.81489e-015 -90 -90   XYZ
    dof rx
    limits (0.0 90.0)
  end
  begin
     id 30
     name rthumb
     direction -0.707107 -6.34937e-011 0.707107   
     length 0.831366   
     axis -90 -45 -2.85299e-015   XYZ
    dof rx rz
    limits (-45.0 45.0)
           (-45.0 45.0)
  end
:hierarchy
  begin
    root lhipjoint rhipjoint lowerback
    lhipjoint lfemur
    lfemur ltibia
    ltibia lfoot
    lfoot ltoes
    rhipjoint rfemur
    rfemur rtibia
    rtibia rfoot
    rfoot rtoes
    lowerback upperback
    upperback thorax
    thorax lowerneck lclavicle rclavicle
    lowerneck upperneck
    upperneck head
    lclavicle lhumerus
    lhumerus lradius
    lradius lwrist
    lwrist lhand lthumb
    lhand lfingers
    rclavicle rhumerus
    rhumerus rradius
    rradius rwrist
    rwrist rhand rthumb
    rhand rfingers
  end

#!OML:ASF H:\Male1\Project 1\Capture day 1\Session 1\Male1.ASF
:FULLY-SPECIFIED
:DEGREES
77
root 20.9951 15.6527 -0.0213886 270.452 -84.2458 -280.543
lowerback 22.2226 1.47528 0.886344
upperback 9.05186 1.3397 -1.53993
thorax -2.46073 0.42487 -2.45611
lowerneck -11.2373 1.2906 6.19211
upperneck 22.2656 0.308729 -0.704729
head 8.84011 0.456468 -1.26694
rclavicle 5.56597e-015 0
rhumerus -31.1365 0.411931 -83.9169
rradius 40.1002
rwrist -25.8934
rhand -18.0184 2.12224
rfingers 7.12502
rthumb 8.2526 -27.6966
lclavicle 5.56597e-015 0
lhumerus -25.0978 -5.79822 73.0271
lradius 38.5336
lwrist -1.16324
lhand -15.8816 9.99579
lfingers 7.12502
lthumb 10.3143 39.7229
rfemur 8.39037 5.55152 23.657
rtibia 3.03518
rfoot -16.8638 -32.3066
rtoes 4.34985
lfemur -95.8964 41.3771 -35.6968
ltibia 148.16
lfoot -20.1562 -10.6166
ltoes -28.4071
78
root 20.8543 15.6715 -0.0245396 262.617 -84.2502 -274.198
lowerback 23.8375 1.54406 1.11499
upperback 9.71084 1.3537 -1.77576
thorax -2.52173 0.399532 -2.87408
lowerneck -11.2388 1.38983 6.12096
upperneck 21.6637 0.46521 -0.576969
head 8.63962 0.53402 -1.19008
rclavicle -1.50082e-014 -5.56597e-015
rhumerus -31.2218 1.02132 -84.1741
rradius 40.8571
rwrist -26.139
rhand -18.1218 2.00953
rfingers 7.12502
rthumb 8.15283 -27.8132
lclavicle -1.50082e-014 -5.56597e-015
lhumerus -24.4363 -6.0413 71.9123
lradius 38.2887
lwrist -0.738184
lhand -16.013 10.188
lfingers 7.12502
lthumb 10.1876 39.9213
rfemur 12.2614 5.17458 23.7407
rtibia -4.17448e-015
rfoot -15.5774 -31.5201
rtoes 4.27545
lfemur -103.576 33.965 -39.9361
ltibia 149.438
lfoot -16.755 -7.36257
ltoes -27.5252
79
root 20.7059 15.6863 -0.0257164 253.875 -84.1773 -266.952
lowerback 25.3746 1.60376 1.36538
upperback 10.3424 1.35865 -2.01036
thorax -2.5529 0.369967 -3.30354
lowerneck -11.1861 1.53061 6.03861
upperneck 21.1066 0.690236 -0.490876
head 8.4477 0.638572 -1.11984
rclavicle -3.08116e-015 1.11319e-014
rhumerus -31.366 1.66331 -84.4255
rradius 41.5224
rwrist -26.3216
rhand -18.16 1.86426
rfingers 7.12502
rthumb 8.11592 -27.9599
lclavicle -3.08116e-015 1.11319e-014
lhumerus -23.9223 -6.24971 70.83
lradius 38.0895
lwrist -0.257345
lhand -16.1947 10.4363
lfingers 7.12502
lthumb 10.0123 40.1781
rfemur 14.5731 4.88392 23.8953
rtibia 4.37326e-015
rfoot -15.9026 -30.3675
rtoes 4.00394
lfemur -109.489 24.9557 -41.9757
ltibia 149.53
lfoot -13.3073 -3.29291
ltoes -26.4088
80
root 20.55 15.6966 -0.0262331 244.832 -84.0094 -259.319
lowerback 26.7255 1.63903 1.62724
upperback 10.9231 1.33962 -2.24133
thorax -2.53279 0.331475 -3.72882
lowerneck -11.0963 1.71986 5.91694
upperneck 20.6305 0.989701 -0.420452
head 8.27938 0.774118 -1.04239
rclavicle -9.74045e-015 -3.97569e-015
rhumerus -31.5393 2.34473 -84.6827
rradius 42.0674
rwrist -26.3801
rhand -18.1657 1.71785
rfingers 7.12502
rthumb 8.11046 -28.1065
lclavicle -9.74045e-015 -3.97569e-015
lhumerus -23.5738 -6.40897 69.7884
lradius 37.9509
lwrist 0.304725
lhand -16.4106 10.7937
lfingers 7.12502
lthumb 9.80404 40.5454
rfemur 16.805 4.66171 24.0486
rtibia -1.8487e-014
rfoot -16.1649 -29.3011
rtoes 3.43618
lfemur -114.19 17.2635 -42.6845
ltibia 148.488
lfoot -10.6318 0.329715
ltoes -25.3324
81
root 20.3876 15.7004 -0.0269459 235.835 -83.7855 -251.598
lowerback 27.8391 1.63235 1.94843
upperback 11.4474 1.29102 -2.46274
thorax -2.44911 0.284797 -4.1669
lowerneck -11.033 1.9739 5.80477
upperneck 20.2959 1.37542 -0.390686
head 8.16677 0.948654 -0.972739
rclavicle -1.27222e-014 -1.59028e-015
rhumerus -31.6951 3.01222 -84.95
rradius 42.454
rwrist -26.2674
rhand -18.1506 1.60577
rfingers 7.12502
rthumb 8.12502 -28.218
lclavicle -1.27222e-014 -1.59028e-015
lhumerus -23.3801 -6.51177 68.7876
lradius 37.8797
lwrist 0.945394
lhand -16.6716 11.2296
lfingers 7.12502
lthumb 9.55221 40.9931
rfemur 18.889 4.47696 24.253
rtibia 2.78299e-015
rfoot -16.3186 -28.3783
rtoes 2.46045
lfemur -117.869 11.9245 -42.8322
ltibia 146.481
lfoot -8.79464 2.92997
ltoes -24.6265
82
root 20.2194 15.697 -0.0284126 226.917 -83.5126 -243.774
lowerback 28.6608 1.59297 2.32258
upperback 11.9068 1.22974 -2.65605
thorax -2.29233 0.24022 -4.59606
lowerneck -10.951 2.26917 5.69105
upperneck 20.0684 1.81718 -0.383235
head 8.08844 1.14821 -0.905766
rclavicle -1.50579e-014 2.74323e-014
rhumerus -31.816 3.62362 -85.2016
rradius 42.6714
rwrist -25.9974
rhand -18.1238 1.53127
rfingers 7.12502
rthumb 8.15084 -28.2915
lclavicle -1.50579e-014 2.74323e-014
lhumerus -23.3405 -6.5346 67.8573
lradius 37.8809
lwrist 1.62977
lhand -16.9904 11.6767
lfingers 7.12502
lthumb 9.2446 41.454
rfemur 20.7552 4.32623 24.5318
rtibia 9.26337e-014
rfoot -16.3409 -27.6329
rtoes 1.00953
lfemur -120.57 8.68536 -42.81
ltibia 143.726
lfoot -7.50308 4.62594
ltoes -24.2204
83
root 20.048 15.6866 -0.0314529 218.363 -83.1929 -236.135
lowerback 29.2349 1.52723 2.71884
upperback 12.2935 1.15866 -2.80494
thorax -2.09984 0.197802 -4.98163
lowerneck -10.852 2.59646 5.60721
upperneck 19.9429 2.30165 -0.421343
head 8.0431 1.36642 -0.855416
rclavicle -2.72832e-014 3.1408e-014
rhumerus -31.9148 4.15926 -85.4143
rradius 42.7394
rwrist -25.6325
rhand -18.1104 1.47705
rfingers 7.12502
rthumb 8.16376 -28.3452
lclavicle -2.72832e-014 3.1408e-014
lhumerus -23.4637 -6.44846 67.0294
lradius 37.9576
lwrist 2.29702
lhand -17.3656 12.0646
lfingers 7.12502
lthumb 8.88259 41.8576
rfemur 22.4074 4.17503 24.8799
rtibia 6.20208e-014
rfoot -16.2753 -27.0493
rtoes -0.859561
lfemur -122.327 6.97028 -42.7497
ltibia 140.414
lfoot -6.42997 5.82119
ltoes -23.7998
84
root 19.8739 15.6701 -0.03644 210.27 -82.7992 -228.755
lowerback 29.5839 1.45514 3.12243
upperback 12.581 1.10168 -2.92325
thorax -1.91387 0.169427 -5.3377
lowerneck -10.7343 2.93529 5.59776
upperneck 19.9157 2.79281 -0.506044
head 8.02934 1.58902 -0.83274
rclavicle -1.61761e-014 -3.42904e-015
rhumerus -32.0522 4.56307 -85.5952
rradius 42.7102
rwrist -25.2563
rhand -18.1253 1.41878
rfingers 7.12502
rthumb 8.14938 -28.4041
lclavicle -1.61761e-014 -3.42904e-015
lhumerus -23.7638 -6.27893 66.3052
lradius 38.1147
lwrist 2.90054
lhand -17.8052 12.3106
lfingers 7.12502
lthumb 8.45833 42.1213
rfemur 23.8329 4.03666 25.2817
rtibia 9.38264e-014
rfoot -16.1691 -26.5778
rtoes -3.03619
lfemur -123.299 6.31361 -42.6594
ltibia 136.728
lfoot -5.34303 6.60269
ltoes -22.5484
85
root 19.6988 15.6484 -0.0440155 203.016 -82.3541 -222.036
lowerback 29.7567 1.38242 3.50915
upperback 12.7716 1.05928 -3.00753
thorax -1.75773 0.153228 -5.64729
lowerneck -10.5675 3.25787 5.65872
upperneck 19.9344 3.25513 -0.626238
head 8.02371 1.79953 -0.837283
rclavicle 1.9748e-014 1.19768e-014
rhumerus -32.276 4.80814 -85.7302
rradius 42.6529
rwrist -24.9484
rhand -18.1667 1.3375
rfingers 7.12502
rthumb 8.10942 -28.4869
lclavicle 1.9748e-014 1.19768e-014
lhumerus -24.2158 -6.04368 65.7029
lradius 38.3331
lwrist 3.41951
lhand -18.268 12.4929
lfingers 7.12502
lthumb 8.01166 42.321
rfemur 25.0616 3.86887 25.7053
rtibia -2.78299e-014
rfoot -16.0727 -26.1496
rtoes -5.28953
lfemur -123.564 6.32999 -42.4914
ltibia 132.771
lfoot -4.03761 7.1547
ltoes -21.0589
86
root 19.5226 15.6225 -0.0546084 196.848 -81.8548 -216.224
lowerback 29.7471 1.32856 3.84156
upperback 12.8662 1.04521 -3.07292
thorax -1.62873 0.154948 -5.90895
lowerneck -10.3513 3.55003 5.78618
upperneck 19.9806 3.66693 -0.761796
head 8.0195 1.98929 -0.864067
rclavicle 3.04513e-014 -1.6524e-014
rhumerus -32.6336 4.87425 -85.8259
rradius 42.6246
rwrist -24.7517
rhand -18.2352 1.24022
rfingers 7.12502
rthumb 8.04332 -28.5867
lclavicle 3.04513e-014 -1.6524e-014
lhumerus -24.8 -5.79296 65.2241
lradius 38.5954
lwrist 3.85608
lhand -18.7333 12.6263
lfingers 7.12502
lthumb 7.56258 42.4711
rfemur 26.1023 3.67513 26.1013
rtibia -2.14687e-014
rfoot -16.0033 -25.7214
rtoes -7.47202
lfemur -123.231 6.75827 -42.2161
ltibia 128.618
lfoot -2.39997 7.45128
ltoes -19.7598
87
root 19.3447 15.5925 -0.0683158 191.869 -81.3221 -211.43
lowerback 29.5434 1.3013 4.09356
upperback 12.8752 1.06035 -3.12717
thorax -1.51087 0.17419 -6.11545
lowerneck -10.0877 3.80547 5.951
upperneck 20.045 4.02025 -0.885888
head 8.01269 2.15493 -0.90033
rclavicle -2.85753e-015 4.77083e-015
rhumerus -33.1416 4.77526 -85.8872
rradius 42.6474
rwrist -24.6667
rhand -18.3425 1.14543
rfingers 7.12502
rthumb 7.9398 -28.6855
lclavicle -2.85753e-015 4.77083e-015
lhumerus -25.5044 -5.56653 64.872
lradius 38.8892
lwrist 4.22758
lhand -19.1853 12.7098
lfingers 7.12502
lthumb 7.12624 42.5698
rfemur 26.9759 3.45235 26.4337
rtibia 3.97569e-015
rfoot -15.9844 -25.2605
rtoes -9.4297
lfemur -122.387 7.41692 -41.789
ltibia 124.336
lfoot -0.508351 7.39845
ltoes -18.641
